<svg width="26" height="22" viewBox="0 0 26 22" fill="none" xmlns="http://www.w3.org/2000/svg">
<g id="Group">
<path id="Vector" d="M14.232 13.332V12.774C14.232 12.0935 13.6805 11.542 13.0005 11.542C12.32 11.542 11.7685 12.0935 11.7685 12.774V13.332C11.7685 14.0125 12.32 14.564 13.0005 14.564C13.68 14.564 14.232 14.0125 14.232 13.332Z" fill="#F0145A"/>
<path id="Vector_2" d="M15.077 14.0136C14.804 14.9071 13.9815 15.5631 13.0005 15.5631C12.019 15.5631 11.1965 14.9071 10.9235 14.0136H2.43898C1.90348 14.0136 1.39748 13.8891 0.943481 13.6731V19.3066C0.943481 20.4066 1.84348 21.3066 2.94348 21.3066H23.0565C24.1565 21.3066 25.0565 20.4066 25.0565 19.3066V13.6736C24.602 13.8896 24.0965 14.0141 23.561 14.0141H15.077V14.0136Z" fill="#F0145A"/>
<path id="Vector_3" d="M23.4775 3.8976H18.677C18.387 2.0846 16.8165 0.693604 14.923 0.693604H11.0765C9.183 0.693604 7.613 2.0846 7.3225 3.8976H2.5225C1.3765 3.8976 0.438995 4.7976 0.438995 5.8976V10.5141C0.438995 11.6186 1.3345 12.5141 2.439 12.5141H10.829C10.8575 11.9386 11.1045 11.4216 11.495 11.0476C11.507 11.0361 11.521 11.0271 11.5335 11.0161C11.62 10.9366 11.71 10.8616 11.8085 10.7966C11.8435 10.7731 11.8835 10.7571 11.92 10.7361C12.001 10.6896 12.081 10.6411 12.1685 10.6051C12.237 10.5766 12.311 10.5601 12.383 10.5386C12.445 10.5201 12.504 10.4956 12.5685 10.4826C12.708 10.4541 12.8525 10.4391 13 10.4391C13.148 10.4391 13.292 10.4546 13.4315 10.4826C13.4955 10.4956 13.5545 10.5201 13.6165 10.5386C13.6885 10.5601 13.7625 10.5766 13.831 10.6056C13.918 10.6416 13.9975 10.6896 14.0785 10.7361C14.1155 10.7576 14.1555 10.7736 14.191 10.7971C14.2895 10.8616 14.379 10.9366 14.4655 11.0161C14.478 11.0276 14.4925 11.0366 14.5045 11.0486C14.8955 11.4226 15.142 11.9396 15.1705 12.5151H23.5605C24.665 12.5151 25.5605 11.6196 25.5605 10.5151V5.8986C25.561 4.7976 24.6235 3.8976 23.4775 3.8976ZM9.248 3.8976C9.503 3.1271 10.2215 2.5656 11.0765 2.5656H14.923C15.778 2.5656 16.4965 3.1271 16.7515 3.8976H9.248Z" fill="#F0145A"/>
</g>
</svg>
