<svg width="32" height="32" viewBox="0 0 32 32" fill="none" xmlns="http://www.w3.org/2000/svg">
<g id="Assets / Advantages / Experience">
<path id="Vector" d="M27.1135 6.3054C26.9445 6.1374 26.7455 6.0529 26.5155 6.0529C26.401 6.0529 26.1595 6.1469 25.7925 6.3324C25.425 6.5184 25.035 6.7254 24.6245 6.9564C24.213 7.1859 23.726 7.3939 23.164 7.5799C22.6025 7.7654 22.0825 7.8594 21.604 7.8594C21.162 7.8594 20.772 7.7754 20.436 7.6069C19.3215 7.0849 18.352 6.6954 17.529 6.4384C16.706 6.1819 15.821 6.0529 14.8735 6.0529C13.2375 6.0529 11.374 6.5849 9.285 7.6469C8.854 7.8619 8.545 8.0284 8.345 8.1504L8.1465 6.6949C8.595 6.3054 8.8845 5.7379 8.8845 5.0974C8.8845 3.9239 7.9335 2.9729 6.76 2.9729C5.5865 2.9729 4.6355 3.9239 4.6355 5.0974C4.6355 5.8629 5.0445 6.5284 5.6515 6.9024L8.5215 27.9474C8.607 28.5739 9.143 29.0284 9.7585 29.0284C9.8145 29.0284 9.8715 29.0249 9.929 29.0174C10.613 28.9234 11.092 28.2939 10.9985 27.6099L9.845 19.1514C11.938 18.1129 13.7485 17.5894 15.2715 17.5894C15.918 17.5894 16.5485 17.6859 17.163 17.8809C17.778 18.0764 18.2895 18.2884 18.6965 18.5179C19.1035 18.7479 19.584 18.9609 20.1365 19.1549C20.69 19.3499 21.2365 19.4474 21.776 19.4474C23.139 19.4474 24.7715 18.9339 26.674 17.9074C26.913 17.7834 27.088 17.6614 27.1985 17.5419C27.309 17.4224 27.3645 17.2524 27.3645 17.0314V6.9029C27.3645 6.6734 27.281 6.4739 27.1135 6.3054Z" fill="#F0145A"/>
</g>
</svg>
