<svg width="24" height="24" viewBox="0 0 24 24" fill="none" xmlns="http://www.w3.org/2000/svg">
<g id="Assets / Social / Facebook" clip-path="url(#clip0_22724_9562)">
<path id="Vector" d="M22.6755 0H1.3245C0.5925 0 0 0.5925 0 1.3245V22.6755C0 23.4075 0.5925 24 1.3245 24H12.819V14.706H9.69V11.085H12.819V8.4105C12.819 5.3115 14.712 3.6255 17.478 3.6255C18.8025 3.6255 19.941 3.7215 20.2725 3.7665V7.0065H18.3525C16.8525 7.0065 16.56 7.7265 16.56 8.7765V11.0865H20.145L19.68 14.7165H16.56V24H22.6755C23.4075 24 24 23.4075 24 22.6755V1.3245C24 0.5925 23.4075 0 22.6755 0Z" fill="#435695"/>
</g>
<defs>
<clipPath id="clip0_22724_9562">
<rect width="24" height="24" fill="white"/>
</clipPath>
</defs>
</svg>
