<svg width="24" height="24" viewBox="0 0 24 24" fill="none" xmlns="http://www.w3.org/2000/svg">
<g id="Assets / Social / LinkedIn" clip-path="url(#clip0_22724_9572)">
<path id="Vector" d="M3.6 9H7.2V20.4H3.6V9ZM5.4 3.3C6.6 3.3 7.5 4.2 7.5 5.4C7.35 6.45 6.45 7.5 5.4 7.5C4.2 7.5 3.3 6.45 3.3 5.4C3.3 4.2 4.2 3.3 5.4 3.3ZM9.3 9H12.75V10.5C13.5 9.3 14.85 8.7 16.2 8.7C19.8 8.7 20.4 11.1 20.4 14.1V20.4H16.8V14.85C16.8 13.5 16.8 11.85 15 11.85C13.2 11.85 12.9 13.35 12.9 14.85V20.55H9.3V9ZM19.5 0H4.5C1.5 0 0 1.5 0 4.5V19.5C0 22.5 1.5 24 4.5 24H19.5C22.5 24 24 22.5 24 19.5V4.5C24 1.5 22.5 0 19.5 0Z" fill="#1178B3"/>
</g>
<defs>
<clipPath id="clip0_22724_9572">
<rect width="24" height="24" fill="white"/>
</clipPath>
</defs>
</svg>
